<mxfile host="app.diagrams.net" agent="Mozilla/5.0 (Windows NT 10.0; Win64; x64) AppleWebKit/537.36 (KHTML, like Gecko) Chrome/139.0.0.0 Safari/537.36" version="28.2.1">
  <diagram id="j6Pxj2w0VWZQlydLIilV" name="ページ1">
    <mxGraphModel dx="820" dy="524" grid="1" gridSize="10" guides="1" tooltips="1" connect="1" arrows="1" fold="1" page="1" pageScale="1" pageWidth="827" pageHeight="1169" math="0" shadow="0">
      <root>
        <mxCell id="0" />
        <mxCell id="1" parent="0" />
        <mxCell id="3DtebmLavuVUnACsjRew-2" value="Actor" style="shape=umlActor;verticalLabelPosition=bottom;verticalAlign=top;html=1;" vertex="1" parent="1">
          <mxGeometry x="224" y="40" width="30" height="60" as="geometry" />
        </mxCell>
        <mxCell id="3DtebmLavuVUnACsjRew-6" value="" style="endArrow=none;dashed=1;html=1;rounded=0;" edge="1" parent="1" source="3DtebmLavuVUnACsjRew-3">
          <mxGeometry width="50" height="50" relative="1" as="geometry">
            <mxPoint x="240" y="460" as="sourcePoint" />
            <mxPoint x="240" y="130" as="targetPoint" />
          </mxGeometry>
        </mxCell>
        <mxCell id="3DtebmLavuVUnACsjRew-7" value="" style="endArrow=none;dashed=1;html=1;rounded=0;" edge="1" parent="1" source="3DtebmLavuVUnACsjRew-46" target="3DtebmLavuVUnACsjRew-3">
          <mxGeometry width="50" height="50" relative="1" as="geometry">
            <mxPoint x="240" y="440" as="sourcePoint" />
            <mxPoint x="240" y="130" as="targetPoint" />
          </mxGeometry>
        </mxCell>
        <mxCell id="3DtebmLavuVUnACsjRew-3" value="" style="whiteSpace=wrap;html=1;" vertex="1" parent="1">
          <mxGeometry x="231" y="160" width="16" height="110" as="geometry" />
        </mxCell>
        <mxCell id="3DtebmLavuVUnACsjRew-8" value="Boundary Object" style="shape=umlBoundary;whiteSpace=wrap;html=1;fillColor=#d5e8d4;strokeColor=#82b366;" vertex="1" parent="1">
          <mxGeometry x="314" y="30" width="80" height="70" as="geometry" />
        </mxCell>
        <mxCell id="3DtebmLavuVUnACsjRew-9" value="Boundary Object" style="shape=umlBoundary;whiteSpace=wrap;html=1;fillColor=#d5e8d4;strokeColor=#82b366;" vertex="1" parent="1">
          <mxGeometry x="440" y="35" width="80" height="70" as="geometry" />
        </mxCell>
        <mxCell id="3DtebmLavuVUnACsjRew-10" value="Control Object" style="ellipse;shape=umlControl;whiteSpace=wrap;html=1;fillColor=#f8cecc;strokeColor=#b85450;" vertex="1" parent="1">
          <mxGeometry x="570" y="35" width="60" height="70" as="geometry" />
        </mxCell>
        <mxCell id="3DtebmLavuVUnACsjRew-11" value="Entity Object" style="ellipse;shape=umlEntity;whiteSpace=wrap;html=1;fillColor=#dae8fc;strokeColor=#6c8ebf;" vertex="1" parent="1">
          <mxGeometry x="680" y="40" width="60" height="60" as="geometry" />
        </mxCell>
        <mxCell id="3DtebmLavuVUnACsjRew-12" value="" style="endArrow=none;dashed=1;html=1;rounded=0;fillColor=#d5e8d4;strokeColor=#82b366;entryX=0.554;entryY=1.014;entryDx=0;entryDy=0;entryPerimeter=0;" edge="1" parent="1" source="3DtebmLavuVUnACsjRew-20" target="3DtebmLavuVUnACsjRew-8">
          <mxGeometry width="50" height="50" relative="1" as="geometry">
            <mxPoint x="358" y="400" as="sourcePoint" />
            <mxPoint x="393.9954545454545" y="140" as="targetPoint" />
          </mxGeometry>
        </mxCell>
        <mxCell id="3DtebmLavuVUnACsjRew-25" value="メニュー画面" style="edgeLabel;html=1;align=center;verticalAlign=middle;resizable=0;points=[];" vertex="1" connectable="0" parent="3DtebmLavuVUnACsjRew-12">
          <mxGeometry x="0.5341" y="1" relative="1" as="geometry">
            <mxPoint as="offset" />
          </mxGeometry>
        </mxCell>
        <mxCell id="3DtebmLavuVUnACsjRew-13" value="" style="endArrow=none;dashed=1;html=1;rounded=0;entryX=0.579;entryY=1.019;entryDx=0;entryDy=0;entryPerimeter=0;fillColor=#d5e8d4;strokeColor=#82b366;" edge="1" parent="1" source="3DtebmLavuVUnACsjRew-41" target="3DtebmLavuVUnACsjRew-9">
          <mxGeometry width="50" height="50" relative="1" as="geometry">
            <mxPoint x="486" y="400" as="sourcePoint" />
            <mxPoint x="420" y="240" as="targetPoint" />
          </mxGeometry>
        </mxCell>
        <mxCell id="3DtebmLavuVUnACsjRew-26" value="学生登録画面" style="edgeLabel;html=1;align=center;verticalAlign=middle;resizable=0;points=[];" vertex="1" connectable="0" parent="3DtebmLavuVUnACsjRew-13">
          <mxGeometry x="0.9198" y="-3" relative="1" as="geometry">
            <mxPoint as="offset" />
          </mxGeometry>
        </mxCell>
        <mxCell id="3DtebmLavuVUnACsjRew-14" value="" style="endArrow=none;dashed=1;html=1;rounded=0;entryX=0.489;entryY=0.929;entryDx=0;entryDy=0;entryPerimeter=0;fillColor=#f8cecc;strokeColor=#b85450;" edge="1" parent="1" source="3DtebmLavuVUnACsjRew-52" target="3DtebmLavuVUnACsjRew-10">
          <mxGeometry width="50" height="50" relative="1" as="geometry">
            <mxPoint x="599" y="400" as="sourcePoint" />
            <mxPoint x="599.3599999999999" y="106.33000000000004" as="targetPoint" />
          </mxGeometry>
        </mxCell>
        <mxCell id="3DtebmLavuVUnACsjRew-27" value="学生情報登録" style="edgeLabel;html=1;align=center;verticalAlign=middle;resizable=0;points=[];" vertex="1" connectable="0" parent="3DtebmLavuVUnACsjRew-14">
          <mxGeometry x="0.8725" y="-2" relative="1" as="geometry">
            <mxPoint as="offset" />
          </mxGeometry>
        </mxCell>
        <mxCell id="3DtebmLavuVUnACsjRew-15" value="" style="endArrow=none;dashed=1;html=1;rounded=0;entryX=0.5;entryY=1;entryDx=0;entryDy=0;fillColor=#dae8fc;strokeColor=#6c8ebf;" edge="1" parent="1" source="3DtebmLavuVUnACsjRew-57" target="3DtebmLavuVUnACsjRew-11">
          <mxGeometry width="50" height="50" relative="1" as="geometry">
            <mxPoint x="710" y="400" as="sourcePoint" />
            <mxPoint x="420" y="240" as="targetPoint" />
          </mxGeometry>
        </mxCell>
        <mxCell id="3DtebmLavuVUnACsjRew-28" value="学生オブジェクト" style="edgeLabel;html=1;align=center;verticalAlign=middle;resizable=0;points=[];" vertex="1" connectable="0" parent="3DtebmLavuVUnACsjRew-15">
          <mxGeometry x="0.9004" y="1" relative="1" as="geometry">
            <mxPoint as="offset" />
          </mxGeometry>
        </mxCell>
        <mxCell id="3DtebmLavuVUnACsjRew-21" value="" style="endArrow=none;dashed=1;html=1;rounded=0;fillColor=#d5e8d4;strokeColor=#82b366;entryX=0.554;entryY=1.014;entryDx=0;entryDy=0;entryPerimeter=0;" edge="1" parent="1" target="3DtebmLavuVUnACsjRew-20">
          <mxGeometry width="50" height="50" relative="1" as="geometry">
            <mxPoint x="359" y="440" as="sourcePoint" />
            <mxPoint x="358" y="101" as="targetPoint" />
          </mxGeometry>
        </mxCell>
        <mxCell id="3DtebmLavuVUnACsjRew-20" value="" style="whiteSpace=wrap;html=1;" vertex="1" parent="1">
          <mxGeometry x="350" y="170" width="16" height="90" as="geometry" />
        </mxCell>
        <mxCell id="3DtebmLavuVUnACsjRew-22" value="" style="endArrow=classic;html=1;rounded=0;exitX=1;exitY=0.085;exitDx=0;exitDy=0;exitPerimeter=0;entryX=0;entryY=0;entryDx=0;entryDy=0;" edge="1" parent="1" source="3DtebmLavuVUnACsjRew-3" target="3DtebmLavuVUnACsjRew-20">
          <mxGeometry width="50" height="50" relative="1" as="geometry">
            <mxPoint x="370" y="290" as="sourcePoint" />
            <mxPoint x="340" y="180" as="targetPoint" />
          </mxGeometry>
        </mxCell>
        <mxCell id="3DtebmLavuVUnACsjRew-29" value="" style="endArrow=classic;html=1;rounded=0;strokeWidth=4;" edge="1" parent="1">
          <mxGeometry width="50" height="50" relative="1" as="geometry">
            <mxPoint x="160" y="120" as="sourcePoint" />
            <mxPoint x="160" y="390" as="targetPoint" />
          </mxGeometry>
        </mxCell>
        <mxCell id="3DtebmLavuVUnACsjRew-30" value="&lt;font style=&quot;font-size: 15px;&quot;&gt;&lt;b&gt;時間の流れ&lt;/b&gt;&lt;/font&gt;" style="text;html=1;align=center;verticalAlign=middle;resizable=0;points=[];autosize=1;strokeColor=none;fillColor=none;" vertex="1" parent="1">
          <mxGeometry x="110" y="398" width="100" height="30" as="geometry" />
        </mxCell>
        <mxCell id="3DtebmLavuVUnACsjRew-31" value="&lt;font style=&quot;font-size: 11px;&quot;&gt;学生登録を選択()&lt;/font&gt;" style="text;html=1;align=center;verticalAlign=middle;resizable=0;points=[];autosize=1;strokeColor=none;fillColor=none;" vertex="1" parent="1">
          <mxGeometry x="245" y="143" width="110" height="30" as="geometry" />
        </mxCell>
        <mxCell id="3DtebmLavuVUnACsjRew-33" value="" style="whiteSpace=wrap;html=1;" vertex="1" parent="1">
          <mxGeometry x="231" y="460" width="16" height="130" as="geometry" />
        </mxCell>
        <mxCell id="3DtebmLavuVUnACsjRew-34" value="活性区間&lt;div&gt;Activation Bar&lt;/div&gt;" style="text;html=1;align=center;verticalAlign=middle;resizable=0;points=[];autosize=1;strokeColor=none;fillColor=none;" vertex="1" parent="1">
          <mxGeometry x="245" y="480" width="100" height="40" as="geometry" />
        </mxCell>
        <mxCell id="3DtebmLavuVUnACsjRew-35" value="" style="endArrow=none;dashed=1;html=1;rounded=0;" edge="1" parent="1">
          <mxGeometry width="50" height="50" relative="1" as="geometry">
            <mxPoint x="360" y="590" as="sourcePoint" />
            <mxPoint x="360" y="460" as="targetPoint" />
          </mxGeometry>
        </mxCell>
        <mxCell id="3DtebmLavuVUnACsjRew-36" value="生存ライン&lt;div&gt;Life Line&lt;/div&gt;" style="text;html=1;align=center;verticalAlign=middle;resizable=0;points=[];autosize=1;strokeColor=none;fillColor=none;" vertex="1" parent="1">
          <mxGeometry x="374" y="475" width="80" height="40" as="geometry" />
        </mxCell>
        <mxCell id="3DtebmLavuVUnACsjRew-37" value="" style="endArrow=classic;html=1;rounded=0;" edge="1" parent="1">
          <mxGeometry width="50" height="50" relative="1" as="geometry">
            <mxPoint x="480" y="520" as="sourcePoint" />
            <mxPoint x="560" y="520" as="targetPoint" />
          </mxGeometry>
        </mxCell>
        <mxCell id="3DtebmLavuVUnACsjRew-39" value="操作()&lt;div&gt;Method&amp;nbsp;&lt;/div&gt;" style="text;html=1;align=center;verticalAlign=middle;resizable=0;points=[];autosize=1;strokeColor=none;fillColor=none;" vertex="1" parent="1">
          <mxGeometry x="480" y="480" width="70" height="40" as="geometry" />
        </mxCell>
        <mxCell id="3DtebmLavuVUnACsjRew-40" value="メッセージ&lt;div&gt;Message&lt;/div&gt;" style="text;html=1;align=center;verticalAlign=middle;resizable=0;points=[];autosize=1;strokeColor=none;fillColor=none;" vertex="1" parent="1">
          <mxGeometry x="565" y="475" width="80" height="40" as="geometry" />
        </mxCell>
        <mxCell id="3DtebmLavuVUnACsjRew-42" value="" style="endArrow=none;dashed=1;html=1;rounded=0;entryX=0.579;entryY=1.019;entryDx=0;entryDy=0;entryPerimeter=0;fillColor=#d5e8d4;strokeColor=#82b366;" edge="1" parent="1" source="3DtebmLavuVUnACsjRew-48" target="3DtebmLavuVUnACsjRew-41">
          <mxGeometry width="50" height="50" relative="1" as="geometry">
            <mxPoint x="486" y="400" as="sourcePoint" />
            <mxPoint x="486" y="106" as="targetPoint" />
          </mxGeometry>
        </mxCell>
        <mxCell id="3DtebmLavuVUnACsjRew-41" value="" style="whiteSpace=wrap;html=1;" vertex="1" parent="1">
          <mxGeometry x="480" y="185" width="16" height="60" as="geometry" />
        </mxCell>
        <mxCell id="3DtebmLavuVUnACsjRew-44" value="" style="endArrow=classic;html=1;rounded=0;entryX=0;entryY=0;entryDx=0;entryDy=0;exitX=1.25;exitY=0.167;exitDx=0;exitDy=0;exitPerimeter=0;" edge="1" parent="1" source="3DtebmLavuVUnACsjRew-20" target="3DtebmLavuVUnACsjRew-41">
          <mxGeometry width="50" height="50" relative="1" as="geometry">
            <mxPoint x="370" y="260" as="sourcePoint" />
            <mxPoint x="420" y="210" as="targetPoint" />
          </mxGeometry>
        </mxCell>
        <mxCell id="3DtebmLavuVUnACsjRew-45" value="表示()" style="text;html=1;align=center;verticalAlign=middle;resizable=0;points=[];autosize=1;strokeColor=none;fillColor=none;" vertex="1" parent="1">
          <mxGeometry x="394" y="155" width="60" height="30" as="geometry" />
        </mxCell>
        <mxCell id="3DtebmLavuVUnACsjRew-47" value="" style="endArrow=none;dashed=1;html=1;rounded=0;" edge="1" parent="1" target="3DtebmLavuVUnACsjRew-46">
          <mxGeometry width="50" height="50" relative="1" as="geometry">
            <mxPoint x="240" y="440" as="sourcePoint" />
            <mxPoint x="239" y="270" as="targetPoint" />
          </mxGeometry>
        </mxCell>
        <mxCell id="3DtebmLavuVUnACsjRew-46" value="" style="whiteSpace=wrap;html=1;" vertex="1" parent="1">
          <mxGeometry x="231" y="300" width="16" height="110" as="geometry" />
        </mxCell>
        <mxCell id="3DtebmLavuVUnACsjRew-49" value="" style="endArrow=none;dashed=1;html=1;rounded=0;entryX=0.579;entryY=1.019;entryDx=0;entryDy=0;entryPerimeter=0;fillColor=#d5e8d4;strokeColor=#82b366;" edge="1" parent="1" target="3DtebmLavuVUnACsjRew-48">
          <mxGeometry width="50" height="50" relative="1" as="geometry">
            <mxPoint x="489" y="450" as="sourcePoint" />
            <mxPoint x="489" y="246" as="targetPoint" />
          </mxGeometry>
        </mxCell>
        <mxCell id="3DtebmLavuVUnACsjRew-48" value="" style="whiteSpace=wrap;html=1;" vertex="1" parent="1">
          <mxGeometry x="480" y="300" width="16" height="90" as="geometry" />
        </mxCell>
        <mxCell id="3DtebmLavuVUnACsjRew-50" value="" style="endArrow=classic;html=1;rounded=0;entryX=-0.11;entryY=0.104;entryDx=0;entryDy=0;entryPerimeter=0;exitX=1.188;exitY=0.085;exitDx=0;exitDy=0;exitPerimeter=0;" edge="1" parent="1" source="3DtebmLavuVUnACsjRew-46" target="3DtebmLavuVUnACsjRew-48">
          <mxGeometry width="50" height="50" relative="1" as="geometry">
            <mxPoint x="370" y="330" as="sourcePoint" />
            <mxPoint x="420" y="280" as="targetPoint" />
          </mxGeometry>
        </mxCell>
        <mxCell id="3DtebmLavuVUnACsjRew-51" value="&lt;font style=&quot;font-size: 11px;&quot;&gt;学生データ入力()&lt;/font&gt;" style="text;html=1;align=center;verticalAlign=middle;resizable=0;points=[];autosize=1;strokeColor=none;fillColor=none;" vertex="1" parent="1">
          <mxGeometry x="245" y="283" width="110" height="30" as="geometry" />
        </mxCell>
        <mxCell id="3DtebmLavuVUnACsjRew-53" value="" style="endArrow=none;dashed=1;html=1;rounded=0;entryX=0.489;entryY=0.929;entryDx=0;entryDy=0;entryPerimeter=0;fillColor=#f8cecc;strokeColor=#b85450;" edge="1" parent="1" target="3DtebmLavuVUnACsjRew-52">
          <mxGeometry width="50" height="50" relative="1" as="geometry">
            <mxPoint x="600" y="440" as="sourcePoint" />
            <mxPoint x="599" y="100" as="targetPoint" />
          </mxGeometry>
        </mxCell>
        <mxCell id="3DtebmLavuVUnACsjRew-52" value="" style="whiteSpace=wrap;html=1;" vertex="1" parent="1">
          <mxGeometry x="592" y="310" width="16" height="60" as="geometry" />
        </mxCell>
        <mxCell id="3DtebmLavuVUnACsjRew-55" value="" style="endArrow=classic;html=1;rounded=0;entryX=0;entryY=0;entryDx=0;entryDy=0;exitX=1.075;exitY=0.104;exitDx=0;exitDy=0;exitPerimeter=0;" edge="1" parent="1" source="3DtebmLavuVUnACsjRew-48" target="3DtebmLavuVUnACsjRew-52">
          <mxGeometry width="50" height="50" relative="1" as="geometry">
            <mxPoint x="370" y="330" as="sourcePoint" />
            <mxPoint x="420" y="280" as="targetPoint" />
          </mxGeometry>
        </mxCell>
        <mxCell id="3DtebmLavuVUnACsjRew-56" value="起動()" style="text;html=1;align=center;verticalAlign=middle;resizable=0;points=[];autosize=1;strokeColor=none;fillColor=none;" vertex="1" parent="1">
          <mxGeometry x="510" y="282" width="60" height="30" as="geometry" />
        </mxCell>
        <mxCell id="3DtebmLavuVUnACsjRew-58" value="" style="endArrow=none;dashed=1;html=1;rounded=0;entryX=0.5;entryY=1;entryDx=0;entryDy=0;fillColor=#dae8fc;strokeColor=#6c8ebf;" edge="1" parent="1" target="3DtebmLavuVUnACsjRew-57">
          <mxGeometry width="50" height="50" relative="1" as="geometry">
            <mxPoint x="710" y="440" as="sourcePoint" />
            <mxPoint x="710" y="100" as="targetPoint" />
          </mxGeometry>
        </mxCell>
        <mxCell id="3DtebmLavuVUnACsjRew-57" value="" style="whiteSpace=wrap;html=1;" vertex="1" parent="1">
          <mxGeometry x="702" y="325" width="16" height="60" as="geometry" />
        </mxCell>
        <mxCell id="3DtebmLavuVUnACsjRew-60" value="" style="endArrow=classic;html=1;rounded=0;entryX=0;entryY=0;entryDx=0;entryDy=0;exitX=1;exitY=0.25;exitDx=0;exitDy=0;" edge="1" parent="1" source="3DtebmLavuVUnACsjRew-52" target="3DtebmLavuVUnACsjRew-57">
          <mxGeometry width="50" height="50" relative="1" as="geometry">
            <mxPoint x="610" y="325" as="sourcePoint" />
            <mxPoint x="420" y="280" as="targetPoint" />
          </mxGeometry>
        </mxCell>
        <mxCell id="3DtebmLavuVUnACsjRew-61" value="&lt;font style=&quot;font-size: 11px;&quot;&gt;学生データ登録()&lt;/font&gt;" style="text;html=1;align=center;verticalAlign=middle;resizable=0;points=[];autosize=1;strokeColor=none;fillColor=none;" vertex="1" parent="1">
          <mxGeometry x="603" y="300" width="110" height="30" as="geometry" />
        </mxCell>
      </root>
    </mxGraphModel>
  </diagram>
</mxfile>
